<?xml version="1.0" encoding="utf-8"?>
<!-- Generator: Adobe Illustrator 28.3.0, SVG Export Plug-In . SVG Version: 6.00 Build 0)  -->
<svg version="1.1" id="Layer_1" xmlns="http://www.w3.org/2000/svg" xmlns:xlink="http://www.w3.org/1999/xlink" x="0px" y="0px"
	 viewBox="0 0 228 208" style="enable-background:new 0 0 228 208;" xml:space="preserve">
<style type="text/css">
	.st0{fill:#096CFF;}
	.st1{fill:none;}
</style>
<path class="st0" d="M84,108.8c0-11.9,0-17.9,1.6-22.7c3.2-9.7,10.8-17.4,20.5-20.5c4.8-1.6,10.8-1.6,22.7-1.6h43.9
	C162.2,27.1,128.3,0,88,0C39.4,0,0,39.4,0,88c0,47.3,37.3,85.8,84,87.9c0-1.7,0-3.7,0-6.3V108.8z"/>
<path class="st0" d="M227.6,91c-2.2-13.7-12.9-24.4-26.6-26.6c-2.5-0.4-5.5-0.4-11.4-0.4h-16.9c2.2,7.6,3.3,15.7,3.3,24
	c0,48.6-39.4,88-88,88c-1.3,0-2.7,0-4-0.1c0,2.1,0.1,3.7,0.4,5.1c2.2,13.7,12.9,24.4,26.6,26.6c2.5,0.4,5.5,0.4,11.4,0.4
	c16.3,0,24.5,0,31.4-1.1c37.7-6,67.2-35.5,73.2-73.2c1.1-6.8,1.1-15,1.1-31.4C228,96.5,228,93.5,227.6,91z"/>
<path class="st1" d="M176,88c0-8.3-1.2-16.4-3.3-24h-43.9c-11.9,0-17.9,0-22.7,1.6c-9.7,3.2-17.4,10.8-20.5,20.5
	C84,90.9,84,96.9,84,108.8v60.8c0,2.6,0,4.6,0,6.3c1.3,0.1,2.6,0.1,4,0.1C136.6,176,176,136.6,176,88z"/>
</svg>
