<svg width="18" height="18" viewBox="0 0 18 18" fill="none" xmlns="http://www.w3.org/2000/svg">
<path d="M8.99996 0.666687C13.6023 0.666687 17.3333 4.39765 17.3333 9.00002C17.3333 13.6024 13.6023 17.3334 8.99996 17.3334C4.39758 17.3334 0.666626 13.6024 0.666626 9.00002C0.666626 4.39765 4.39758 0.666687 8.99996 0.666687ZM8.99996 2.33335C5.31806 2.33335 2.33329 5.31812 2.33329 9.00002C2.33329 12.6819 5.31806 15.6667 8.99996 15.6667C12.6819 15.6667 15.6666 12.6819 15.6666 9.00002C15.6666 5.31812 12.6819 2.33335 8.99996 2.33335ZM12.194 5.11459C12.3914 4.97609 12.6596 4.9994 12.8301 5.16986C13.0001 5.33989 13.0222 5.60798 12.8822 5.8035C11.0658 8.34127 10.0663 9.70144 9.88388 9.88394C9.39571 10.372 8.60421 10.372 8.11604 9.88394C7.62796 9.39577 7.62796 8.60427 8.11604 8.1161C8.42713 7.8051 9.78646 6.80459 12.194 5.11459ZM13.5833 8.16669C14.0435 8.16669 14.4166 8.53977 14.4166 9.00002C14.4166 9.46027 14.0435 9.83335 13.5833 9.83335C13.123 9.83335 12.75 9.46027 12.75 9.00002C12.75 8.53977 13.123 8.16669 13.5833 8.16669ZM4.41663 8.16669C4.87686 8.16669 5.24996 8.53977 5.24996 9.00002C5.24996 9.46027 4.87686 9.83335 4.41663 9.83335C3.95639 9.83335 3.58329 9.46027 3.58329 9.00002C3.58329 8.53977 3.95639 8.16669 4.41663 8.16669ZM6.34831 5.16986C6.67374 5.4953 6.67374 6.02294 6.34831 6.34837C6.02288 6.6738 5.49523 6.6738 5.1698 6.34837C4.84436 6.02294 4.84436 5.4953 5.1698 5.16986C5.49523 4.84442 6.02288 4.84442 6.34831 5.16986ZM8.99996 3.58335C9.46021 3.58335 9.83329 3.95645 9.83329 4.41669C9.83329 4.87692 9.46021 5.25002 8.99996 5.25002C8.53971 5.25002 8.16663 4.87692 8.16663 4.41669C8.16663 3.95645 8.53971 3.58335 8.99996 3.58335Z" fill="#0090DF"/>
</svg>
