<svg width="97" height="32" viewBox="0 0 97 32" fill="none" xmlns="http://www.w3.org/2000/svg">
<g clip-path="url(#clip0_3291_12896)">
<path d="M8.23695 7.93401L0 12.9641V5.9265L8.23695 0.896362V7.93401Z" fill="url(#paint0_linear_3291_12896)"/>
<path d="M8.23695 24.0657L0 19.0356V26.0732L8.23695 31.1034V24.0657Z" fill="url(#paint1_linear_3291_12896)"/>
<path d="M21.2282 20.8996L8.2373 12.9644V24.0665L21.2282 32.0003V20.8996Z" fill="url(#paint2_linear_3291_12896)"/>
<path d="M8.23633 7.93388V7.95793L17.3051 13.497L21.2272 11.1008V0L8.23633 7.93388Z" fill="url(#paint3_linear_3291_12896)"/>
<path d="M43.5158 24.7389H40.0763L33.1458 16.2667V24.7389H30.2587V6.93036H33.1458V14.919L39.8245 6.93036H43.264L36.1582 15.6055L43.5158 24.7389Z" fill="white"/>
<path d="M53.5097 12.0177H56.2215V24.7373H53.5097V22.9061C52.4801 24.3566 51.0233 25.0685 49.1157 25.0685C47.3834 25.0685 45.9266 24.4328 44.6966 23.1345C43.4666 21.8376 42.8641 20.2347 42.8641 18.3768C42.8641 16.5189 43.4666 14.9174 44.6966 13.6192C45.9266 12.3222 47.3834 11.6851 49.1157 11.6851C51.0246 11.6851 52.4801 12.397 53.5097 13.8222V12.0164V12.0177ZM49.5428 22.448C50.6726 22.448 51.6271 22.066 52.3799 21.3033C53.1326 20.5152 53.5097 19.5482 53.5097 18.3782C53.5097 17.2081 53.1326 16.2411 52.3799 15.4784C51.6271 14.6904 50.6726 14.3084 49.5428 14.3084C48.413 14.3084 47.4585 14.6904 46.7058 15.4784C45.953 16.2411 45.5759 17.2081 45.5759 18.3782C45.5759 19.5482 45.953 20.5152 46.7058 21.3033C47.4585 22.066 48.413 22.448 49.5428 22.448Z" fill="white"/>
<path d="M59.034 10.0345C58.3814 9.32261 58.3814 8.30483 59.034 7.61829C59.7116 6.93176 60.7663 6.93176 61.4439 7.61829C62.0965 8.30483 62.0965 9.32261 61.4189 10.0345C60.7412 10.6957 59.7367 10.6957 59.034 10.0345ZM58.8837 24.7389V12.0193H61.5955V24.7389H58.8837Z" fill="white"/>
<path d="M68.9533 17.183C70.8873 17.6157 73.3974 18.4292 73.3473 21.1513C73.3473 22.3721 72.8701 23.3391 71.9407 24.0256C71.0113 24.7122 69.8564 25.0688 68.451 25.0688C65.9647 25.0688 64.1322 23.9495 63.328 22.0929L65.6628 20.7185C66.0899 21.9393 67.018 22.5497 68.4497 22.5497C69.8814 22.5497 70.5841 22.0662 70.5841 21.1246C70.5841 20.3111 69.5294 19.8276 68.1992 19.4964C66.3153 19.0129 63.7802 18.2502 63.8303 15.5789C63.8303 14.4088 64.2574 13.4672 65.1354 12.7552C66.0148 12.0433 67.1195 11.6867 68.4247 11.6867C70.509 11.6867 72.1912 12.6791 73.0705 14.3327L70.7858 15.6296C70.3587 14.6626 69.5558 14.1791 68.426 14.1791C67.3964 14.1791 66.5935 14.6372 66.5935 15.5281C66.5935 16.3682 67.6482 16.7997 68.9533 17.1817V17.183Z" fill="white"/>
<path d="M84.8476 12.0178H87.5594V24.7374H84.8476V22.9062C83.818 24.3567 82.3612 25.0687 80.4536 25.0687C78.7213 25.0687 77.2645 24.4329 76.0345 23.1346C74.8045 21.8377 74.202 20.2349 74.202 18.377C74.202 16.519 74.8045 14.9176 76.0345 13.6193C77.2645 12.321 78.7213 11.6852 80.4536 11.6852C82.3625 11.6852 83.818 12.3972 84.8476 13.8223V12.0165V12.0178ZM80.8807 22.4481C82.0105 22.4481 82.965 22.0661 83.7178 21.3034C84.4705 20.5154 84.8476 19.5483 84.8476 18.3783C84.8476 17.2082 84.4705 16.2412 83.7178 15.4785C82.965 14.6905 82.0105 14.3085 80.8807 14.3085C79.7509 14.3085 78.7964 14.6905 78.0437 15.4785C77.2909 16.2412 76.9138 17.2082 76.9138 18.3783C76.9138 19.5483 77.2909 20.5154 78.0437 21.3034C78.7964 22.0661 79.7509 22.4481 80.8807 22.4481Z" fill="white"/>
<path d="M92.9322 14.1554C93.6098 12.578 94.9162 11.7899 96.7988 11.7899V14.7658C95.7692 14.6897 94.8648 14.9434 94.087 15.5285C93.3092 16.0881 92.9322 17.0298 92.9322 18.3267V24.7379H90.2203V12.0183H92.9322V14.1554Z" fill="white"/>
</g>
<defs>
<linearGradient id="paint0_linear_3291_12896" x1="11.7859" y1="-5.56828" x2="-5.41672" y2="21.7503" gradientUnits="userSpaceOnUse">
<stop stop-color="#0090DF"/>
<stop offset="1" stop-color="#2A166F"/>
</linearGradient>
<linearGradient id="paint1_linear_3291_12896" x1="19.8119" y1="-0.515963" x2="2.61062" y2="26.804" gradientUnits="userSpaceOnUse">
<stop stop-color="#0090DF"/>
<stop offset="1" stop-color="#2A166F"/>
</linearGradient>
<linearGradient id="paint2_linear_3291_12896" x1="26.3248" y1="3.58527" x2="9.12221" y2="30.9052" gradientUnits="userSpaceOnUse">
<stop stop-color="#0090DF"/>
<stop offset="1" stop-color="#2A166F"/>
</linearGradient>
<linearGradient id="paint3_linear_3291_12896" x1="20.5865" y1="-0.0267132" x2="3.38518" y2="27.2933" gradientUnits="userSpaceOnUse">
<stop stop-color="#0090DF"/>
<stop offset="1" stop-color="#2A166F"/>
</linearGradient>
<clipPath id="clip0_3291_12896">
<rect width="96.8" height="32" fill="white"/>
</clipPath>
</defs>
</svg>
