<svg width="14" height="14" viewBox="0 0 14 14" fill="none" xmlns="http://www.w3.org/2000/svg">
<path fill-rule="evenodd" clip-rule="evenodd" d="M0.400024 2.4C0.400024 1.40589 1.20591 0.599998 2.20002 0.599998H6.60002C7.59414 0.599998 8.40002 1.40589 8.40002 2.4V4C8.40002 4.33137 8.13139 4.6 7.80002 4.6C7.46865 4.6 7.20002 4.33137 7.20002 4V2.4C7.20002 2.06863 6.9314 1.8 6.60002 1.8H2.20002C1.86865 1.8 1.60002 2.06863 1.60002 2.4V11.6C1.60002 11.9314 1.86865 12.2 2.20002 12.2H6.60002C6.9314 12.2 7.20002 11.9314 7.20002 11.6V10C7.20002 9.66863 7.46865 9.4 7.80002 9.4C8.13139 9.4 8.40002 9.66863 8.40002 10V11.6C8.40002 12.5941 7.59414 13.4 6.60002 13.4H2.20002C1.20591 13.4 0.400024 12.5941 0.400024 11.6V2.4Z" fill="#F8FAFC"/>
<path fill-rule="evenodd" clip-rule="evenodd" d="M2.80002 7C2.80002 6.66863 3.06865 6.4 3.40002 6.4H11.0364L10.1986 5.64597C9.95234 5.4243 9.93237 5.04493 10.154 4.79862C10.3757 4.55231 10.7551 4.53235 11.0014 4.75402L13.0014 6.55402C13.1278 6.66781 13.2 6.82991 13.2 7C13.2 7.17009 13.1278 7.33219 13.0014 7.44597L11.0014 9.24597C10.7551 9.46765 10.3757 9.44768 10.154 9.20138C9.93237 8.95507 9.95234 8.5757 10.1986 8.35402L11.0364 7.6H3.40002C3.06865 7.6 2.80002 7.33137 2.80002 7Z" fill="#F8FAFC"/>
</svg>
