<svg width="40" height="47" viewBox="0 0 40 47" fill="none" xmlns="http://www.w3.org/2000/svg">
<g clip-path="url(#clip0_6119_21839)">
<path d="M20.0006 0C8.97139 0 0 9.09527 0 20.2755C0 20.2807 0.00255159 20.2846 0.00255159 20.2898C0.00255159 20.3053 0.00765477 20.3195 0.0102064 20.335C0.0153095 20.3635 0.0216885 20.3906 0.0318949 20.4165C0.0382738 20.4307 0.0459286 20.445 0.0535834 20.4579C0.0688929 20.4838 0.0867541 20.507 0.107167 20.5277C0.113546 20.5342 0.117373 20.5433 0.123752 20.5497L12.7197 31.6175C11.4349 33.2394 10.6618 35.2946 10.6618 37.5309C10.6618 42.7511 14.8503 46.9974 19.9994 46.9974C25.1485 46.9974 29.3369 42.7511 29.3369 37.5309C29.3369 35.2933 28.5638 33.2394 27.279 31.6162L39.875 20.5484C39.8826 20.542 39.8852 20.5329 39.8916 20.5264C39.912 20.5045 39.9298 20.4825 39.9451 20.4566C39.9528 20.4424 39.9604 20.4294 39.9668 20.4152C39.9783 20.3893 39.9834 20.3622 39.9885 20.3337C39.9911 20.3182 39.9949 20.304 39.9962 20.2885C39.9962 20.2833 39.9987 20.2794 39.9987 20.2742C40 9.09527 31.0273 0 20.0006 0ZM12.5334 12.1632C12.5347 12.0585 12.5372 11.955 12.5411 11.8528C12.5436 11.7636 12.5474 11.6756 12.5525 11.5877C12.5576 11.4868 12.5628 11.3872 12.5691 11.2876C12.5742 11.2009 12.5806 11.1156 12.587 11.0315C12.5946 10.9332 12.6036 10.8375 12.6125 10.7405C12.6202 10.6577 12.6291 10.5762 12.638 10.4947C12.6482 10.4003 12.6597 10.3059 12.6712 10.2128C12.6814 10.1339 12.6916 10.055 12.7031 9.97609C12.7158 9.88425 12.7299 9.79371 12.7439 9.70447C12.7554 9.62816 12.7682 9.55185 12.7809 9.47812C12.7962 9.39017 12.8115 9.30222 12.8281 9.21685C12.8422 9.14313 12.8562 9.0707 12.8715 8.99827C12.8894 8.9129 12.9072 8.82883 12.9264 8.74476C12.9417 8.67491 12.957 8.60636 12.9736 8.53781C12.9927 8.45503 13.0131 8.37355 13.0348 8.29206C13.0514 8.2261 13.068 8.15884 13.0858 8.09417C13.1075 8.01398 13.1292 7.93638 13.1522 7.85748C13.17 7.7941 13.1879 7.73202 13.207 7.66993C13.23 7.59233 13.2542 7.51731 13.2785 7.44229C13.2976 7.38279 13.3167 7.322 13.3372 7.26251C13.3627 7.18878 13.3882 7.11635 13.4137 7.04392C13.4341 6.98701 13.4533 6.9301 13.4737 6.87578C13.5005 6.80464 13.5273 6.7348 13.554 6.66495C13.5745 6.61192 13.5949 6.5576 13.6166 6.50586C13.6446 6.43731 13.6727 6.37005 13.7008 6.3028C13.7225 6.25235 13.7429 6.20191 13.7646 6.15276C13.7939 6.0868 13.8232 6.02213 13.8526 5.95746C13.8743 5.91089 13.8947 5.86304 13.9164 5.81777C13.947 5.75439 13.9776 5.69231 14.007 5.63022C14.0286 5.58625 14.0503 5.54227 14.072 5.49959C14.1026 5.4388 14.1333 5.38059 14.1639 5.32239C14.1856 5.281 14.2073 5.23961 14.2289 5.19952C14.2608 5.14002 14.294 5.08182 14.3272 5.02361C14.3476 4.98869 14.3667 4.95118 14.3871 4.91626C14.4216 4.85676 14.456 4.79985 14.4905 4.74165C14.5083 4.71061 14.5275 4.67827 14.5453 4.64852C14.5811 4.59032 14.6168 4.53341 14.6538 4.47779C14.6704 4.45192 14.687 4.42476 14.7035 4.39889C14.7418 4.34069 14.7788 4.28507 14.8158 4.22946C14.8298 4.20876 14.8451 4.18548 14.8592 4.16479C14.9102 4.08977 14.9612 4.01734 15.0123 3.94749C16.7333 1.5702 18.7759 0.725604 20.0019 0.725604C21.228 0.725604 23.2705 1.56891 24.9915 3.94749C25.0413 4.01734 25.0923 4.08977 25.1446 4.16479C25.1612 4.18807 25.1765 4.21394 25.1931 4.23722C25.2288 4.29025 25.2646 4.34198 25.3003 4.3976C25.3194 4.42864 25.3398 4.46098 25.3603 4.49202C25.3934 4.54376 25.4253 4.5942 25.4585 4.64723C25.4802 4.68215 25.5006 4.71837 25.5223 4.75329C25.5542 4.80632 25.5861 4.85806 25.618 4.91367C25.6409 4.95247 25.6626 4.99386 25.6856 5.03396C25.7162 5.08699 25.7455 5.14131 25.7762 5.19564C25.7991 5.23961 25.8234 5.28488 25.8463 5.33015C25.8757 5.38577 25.905 5.44009 25.9331 5.497C25.956 5.54227 25.9777 5.58883 26.0007 5.6354C26.03 5.69489 26.0594 5.75568 26.0887 5.81647C26.1104 5.86304 26.1321 5.91219 26.1551 5.96004C26.1831 6.02213 26.2125 6.0855 26.2405 6.14888C26.2635 6.20062 26.2852 6.25494 26.3082 6.30797C26.335 6.37264 26.3618 6.43602 26.3885 6.50198C26.4102 6.5563 26.4319 6.61192 26.4536 6.66754C26.4804 6.7348 26.5059 6.80335 26.5314 6.8719C26.5531 6.9301 26.5735 6.9883 26.5939 7.0478C26.6182 7.11765 26.6437 7.18749 26.6679 7.25992C26.6884 7.32071 26.7075 7.38279 26.7279 7.44488C26.7509 7.5186 26.7751 7.59233 26.7981 7.66735C26.8172 7.73072 26.8351 7.79539 26.8542 7.85877C26.8759 7.93508 26.8976 8.01269 26.9193 8.09029C26.9371 8.15755 26.955 8.22481 26.9716 8.29336C26.992 8.37226 27.0111 8.45245 27.0315 8.53393C27.0481 8.60378 27.0634 8.67362 27.08 8.74476C27.0979 8.82754 27.117 8.91161 27.1336 8.99697C27.1489 9.0694 27.163 9.14184 27.177 9.21556C27.1936 9.30092 27.2089 9.38758 27.2242 9.47554C27.2369 9.55185 27.2497 9.62816 27.2625 9.70576C27.2765 9.79501 27.2905 9.88425 27.3033 9.97479C27.3148 10.0537 27.325 10.1326 27.3352 10.2128C27.3467 10.3059 27.3581 10.399 27.3684 10.4935C27.3773 10.5749 27.3862 10.6564 27.3939 10.7392C27.4028 10.8349 27.4117 10.9319 27.4194 11.0302C27.4258 11.1143 27.4321 11.1997 27.4372 11.2863C27.4436 11.3846 27.4487 11.4855 27.4538 11.5851C27.4577 11.6743 27.4615 11.7623 27.4653 11.8528C27.4691 11.9537 27.4717 12.0559 27.473 12.1594C27.4742 12.2512 27.4755 12.3443 27.4768 12.4374C27.4768 12.5422 27.4768 12.6496 27.4755 12.7569C27.4755 12.8513 27.473 12.9458 27.4704 13.0415C27.4679 13.1501 27.4628 13.2601 27.4589 13.3713C27.4551 13.4696 27.4513 13.5679 27.4449 13.6675C27.4385 13.78 27.4309 13.8925 27.4219 14.0064C27.4143 14.1072 27.4079 14.2081 27.399 14.3103C27.3888 14.4267 27.3773 14.5444 27.3658 14.6621C27.3556 14.7656 27.3454 14.8704 27.3326 14.9751C27.3186 15.0941 27.3033 15.2144 27.288 15.3347C27.2739 15.4433 27.2599 15.5507 27.2446 15.6606C27.2267 15.7822 27.2076 15.9064 27.1872 16.0293C27.1693 16.1405 27.1527 16.2517 27.1323 16.3655C27.1106 16.491 27.0864 16.619 27.0622 16.7458C27.0405 16.8609 27.0201 16.976 26.9958 17.0924C26.9703 17.2205 26.941 17.3511 26.9129 17.4818C26.8874 17.6007 26.8631 17.7197 26.8351 17.84C26.8045 17.972 26.7713 18.1065 26.7394 18.2397C26.71 18.3626 26.6807 18.4829 26.6488 18.607C26.6144 18.7428 26.5761 18.8812 26.5391 19.0183C26.5046 19.1438 26.4727 19.2692 26.4357 19.3973C26.4306 19.4128 26.4255 19.4296 26.4217 19.4452C25.0388 17.6848 22.6084 16.5815 20.0057 16.5815C17.4031 16.5815 14.9727 17.6848 13.5898 19.4452C13.5847 19.4283 13.5796 19.4115 13.5745 19.3947C13.54 19.2718 13.5081 19.1528 13.4762 19.0313C13.4379 18.889 13.3984 18.7454 13.3627 18.6057C13.3321 18.4841 13.304 18.3652 13.2746 18.2462C13.2415 18.1104 13.207 17.9733 13.1764 17.8387C13.1496 17.7197 13.1254 17.6033 13.0999 17.4869C13.0718 17.355 13.0425 17.2218 13.0157 17.0924C12.9927 16.9773 12.9723 16.8648 12.9506 16.751C12.9264 16.6216 12.9021 16.4923 12.8804 16.3655C12.8613 16.2543 12.8447 16.1444 12.8268 16.0331C12.8064 15.9077 12.7873 15.7835 12.7694 15.6593C12.7541 15.5507 12.7401 15.4433 12.7261 15.336C12.7107 15.2144 12.6942 15.0928 12.6801 14.9738C12.6686 14.8678 12.6572 14.7643 12.647 14.6608C12.6355 14.5431 12.6227 14.4254 12.6138 14.309C12.6049 14.2068 12.5985 14.1059 12.5908 14.0051C12.5832 13.8912 12.5742 13.7761 12.5679 13.6636C12.5628 13.5653 12.5576 13.467 12.5538 13.37C12.5487 13.2588 12.5449 13.1475 12.5423 13.0376C12.5398 12.9432 12.5385 12.8488 12.5372 12.7556C12.536 12.647 12.5347 12.5396 12.536 12.4336C12.536 12.3417 12.5372 12.2499 12.5398 12.1594L12.5334 12.1632ZM20.0006 28.0657C18.9456 28.0657 17.9351 28.252 16.9898 28.5805L13.8551 20.3195C15.0225 18.4893 17.4108 17.3136 20.0006 17.3136C22.5905 17.3136 24.9788 18.4893 26.1461 20.3195L23.0128 28.5805C22.0662 28.252 21.0557 28.0657 20.0019 28.0657H20.0006ZM3.17673 14.6505C4.88374 8.23257 9.77131 4.849 9.97927 4.70802C10.1451 4.59679 10.3671 4.64076 10.4781 4.80761C10.5891 4.97446 10.5444 5.20081 10.3799 5.31334C10.3314 5.34696 5.50506 8.69431 3.87076 14.8406C3.82738 15.0036 3.68194 15.1096 3.52375 15.1096C3.49313 15.1096 3.46123 15.1058 3.43061 15.0967C3.23924 15.0437 3.1257 14.8445 3.17673 14.6505ZM0.831818 20.2096C2.02341 18.4428 4.36832 17.3149 6.90588 17.3149C9.44343 17.3149 11.9937 18.5424 13.1305 20.4437L16.3149 28.8379C15.1245 29.3579 14.0682 30.1261 13.1943 31.0716L0.831818 20.2096ZM26.8057 31.0716C25.9318 30.1261 24.8742 29.3579 23.6839 28.8379L26.8682 20.4437C28.005 18.5424 30.4443 17.3149 33.0928 17.3149C35.7414 17.3149 37.9753 18.4428 39.1669 20.2096L26.8045 31.0716H26.8057Z" fill="url(#paint0_linear_6119_21839)"/>
<g clip-path="url(#clip1_6119_21839)">
<path d="M19.1035 34.4851L16 36.2268V33.7909L19.1035 32.0492V34.4851Z" fill="white"/>
<path d="M19.1035 40.2535L16 38.5129V40.9489L19.1035 42.6906V40.2535Z" fill="white"/>
<path d="M24 39.1577L19.1035 36.4113V40.2536L24 43V39.1577Z" fill="white"/>
<path d="M19.1035 34.4851V34.493L22.5214 36.4113L24 35.581V31.7386L19.1035 34.4851Z" fill="white"/>
</g>
</g>
<defs>
<linearGradient id="paint0_linear_6119_21839" x1="19.9994" y1="-0.087952" x2="19.9994" y2="48.8547" gradientUnits="userSpaceOnUse">
<stop stop-color="#0090DF"/>
<stop offset="0.39" stop-color="#174DA2"/>
<stop offset="0.7" stop-color="#0388D8"/>
<stop offset="1" stop-color="#2A166F"/>
</linearGradient>
<clipPath id="clip0_6119_21839">
<rect width="40" height="47" fill="white"/>
</clipPath>
<clipPath id="clip1_6119_21839">
<rect width="8" height="12" fill="white" transform="translate(16 31)"/>
</clipPath>
</defs>
</svg>
