<svg width="20" height="20" viewBox="0 0 20 20" fill="none" xmlns="http://www.w3.org/2000/svg">
<path d="M10.4166 18.3333H5.49235C4.20453 18.3333 3.18022 17.7067 2.26051 16.8305C0.377764 15.0368 3.46896 13.6033 4.64794 12.9013C6.3986 11.8589 8.44729 11.4766 10.4166 11.7543C11.1312 11.8551 11.8271 12.0428 12.5 12.3174" stroke="#0090DF" stroke-width="1.5" stroke-linecap="round" stroke-linejoin="round"/>
<path d="M13.75 5.41669C13.75 7.48775 12.0711 9.16669 10 9.16669C7.92893 9.16669 6.25 7.48775 6.25 5.41669C6.25 3.34562 7.92893 1.66669 10 1.66669C12.0711 1.66669 13.75 3.34562 13.75 5.41669Z" stroke="#0090DF" stroke-width="1.5"/>
<path d="M15.4167 18.3333V12.5M12.5 15.4167H18.3333" stroke="#0090DF" stroke-width="1.5" stroke-linecap="round"/>
</svg>
